Coordinates
version=1
nRows=22
nColumns=33
inDegrees=yes

Units are S.I. units (second, meters, Newtons, ...)
Angles are in degrees.

endheader
time	ground_thorax_rot_x	ground_thorax_rot_y	ground_thorax_rot_z	ground_thorax_tx	ground_thorax_ty	ground_thorax_tz	clav_prot_r	clav_elev_r	scapula_abduction_r	scapula_elevation_r	scapula_upward_rot_r	scapula_winging_r	shoulder_elv_r	plane_of_elev_r	axial_rot_r	elbow_flexion_r	pro_sup_r	wrist_flex_r	wrist_dev_r	clav_prot_l	clav_elev_l	scapula_abduction_l	scapula_elevation_l	scapula_upward_rot_l	scapula_winging_l	shoulder_elv_l	plane_of_elev_l	axial_rot_l	elbow_flexion_l	pro_sup_l	wrist_flex_l	wrist_dev_l	
10.7000	-24.486732	-34.362683	48.054124	-48.129123	833.664637	-41.078164	27.703021	-45.000000	41.747648	-45.000000	-45.000000	1694.303222	-2084.454000	20.884774	-146.038304	358.552514	159.387350	13.392199	15.538552	-3.838343	38.319064	-34.756630	-45.000000	-22.975115	3699.678672	-2984.065805	142.895062	180.000000	2160.591300	41.724052	15.913521	-23.666388	
10.7100	-23.974779	-34.686229	48.825730	-45.245309	832.156202	-40.884388	27.762832	-45.000000	41.821095	-45.000000	-45.000000	1694.377092	-2084.571412	20.819500	-145.914965	358.588197	159.895718	13.280644	15.530637	-3.898375	38.284131	-34.600039	-45.000000	-23.106690	3699.572979	-2984.190219	142.924078	180.000000	2160.511828	41.769916	15.988158	-23.485275	
10.7200	-23.458357	-35.007353	49.599043	-42.358783	830.615290	-40.686324	27.810941	-45.000000	41.894465	-45.000000	-45.000000	1694.450551	-2084.681049	20.743316	-145.767530	358.611560	160.431160	13.176332	15.512248	-3.943324	38.252318	-34.436805	-45.000000	-23.241599	3699.481292	-2984.322244	142.941488	180.000000	2160.419561	41.796567	16.055172	-23.288764	
10.7300	-22.952639	-35.313510	50.362346	-39.471966	829.041278	-40.483882	27.849875	-45.000000	41.949963	-45.000000	-45.000000	1694.521919	-2084.787648	20.661337	-145.595859	358.631315	160.993479	13.079395	15.481284	-3.966173	38.221293	-34.280178	-45.000000	-23.381757	3699.413664	-2984.467484	142.933376	180.000000	2160.313949	41.809048	16.117216	-23.083594	
10.7400	-22.468476	-35.601676	51.097304	-36.586445	827.433333	-40.277859	27.878155	-45.000000	41.978317	-45.000000	-45.000000	1694.595474	-2084.890814	20.582407	-145.407487	358.649231	161.586122	12.994049	15.437389	-3.961018	38.191738	-34.135879	-45.000000	-23.519609	3699.372860	-2984.625691	142.899389	180.000000	2160.193921	41.815651	16.175816	-22.879303	
10.7500	-22.011544	-35.865608	51.802850	-33.703174	825.790802	-40.069604	27.898470	-45.000000	41.971762	-45.000000	-45.000000	1694.669115	-2084.994638	20.507939	-145.203842	358.672561	162.210505	12.917829	15.380939	-3.929692	38.163207	-34.009841	-45.000000	-23.656295	3699.359575	-2984.796986	142.837510	180.000000	2160.060444	41.824319	16.231179	-22.680509	
10.7600	-21.559587	-36.119292	52.501424	-30.822499	824.113574	-39.861085	27.920903	-45.000000	41.947128	-45.000000	-45.000000	1694.735067	-2085.095982	20.440806	-144.982727	358.702420	162.865172	12.847029	15.314520	-3.894212	38.129539	-33.880787	-45.000000	-23.803416	3699.350185	-2984.970888	142.764784	180.000000	2159.920584	41.838938	16.282251	-22.490274	
10.7700	-21.093549	-36.369031	53.219073	-27.944864	822.402087	-39.654015	27.952649	-45.000000	41.916604	-45.000000	-45.000000	1694.783094	-2085.195034	20.377357	-144.732600	358.740833	163.542641	12.775841	15.240927	-3.869893	38.088612	-33.738223	-45.000000	-23.976958	3699.330639	-2985.143271	142.691248	180.000000	2159.780531	41.859401	16.327877	-22.304647	
10.7800	-20.603072	-36.621126	53.962625	-25.070960	820.657262	-39.449525	27.997900	-45.000000	41.893714	-45.000000	-45.000000	1694.812403	-2085.290609	20.315812	-144.452764	358.786232	164.234665	12.703943	15.162968	-3.867870	38.038682	-33.570327	-45.000000	-24.175615	3699.285607	-2985.307445	142.630100	180.000000	2159.642391	41.882608	16.368479	-22.122384	
10.7900	-20.093745	-36.871112	54.725709	-22.202229	818.880157	-39.247168	28.051748	-45.000000	41.875776	-45.000000	-45.000000	1694.825460	-2085.383390	20.253021	-144.142531	358.836315	164.932030	12.632208	15.081461	-3.876349	37.983193	-33.383513	-45.000000	-24.400780	3699.225063	-2985.467322	142.572035	180.000000	2159.505026	41.905205	16.403742	-21.938005	
10.8000	-19.569484	-37.117426	55.502509	-19.341022	817.072245	-39.045352	28.115213	-45.000000	41.865759	-45.000000	-45.000000	1694.823708	-2085.475571	20.188122	-143.804984	358.890534	165.626738	12.561295	14.997962	-3.898176	37.919044	-33.176062	-45.000000	-24.647441	3699.144907	-2985.620727	142.519232	180.000000	2159.368294	41.924522	16.434354	-21.751684	
10.8100	-19.039878	-37.353338	56.283387	-16.490162	815.235174	-38.841510	28.184728	-45.000000	41.857528	-45.000000	-45.000000	1694.807603	-2085.567806	20.123389	-143.439187	358.949802	166.311888	12.492186	14.914059	-3.923960	37.849197	-32.957470	-45.000000	-24.917300	3699.052240	-2985.770863	142.465387	180.000000	2159.232082	41.939834	16.460522	-21.564658	
10.8200	-18.510431	-37.574453	57.062076	-13.652827	813.371052	-38.633036	28.259840	-45.000000	41.847577	-45.000000	-45.000000	1694.778811	-2085.661076	20.058327	-143.046414	359.014287	166.981354	12.424958	14.830617	-3.955803	37.770487	-32.729090	-45.000000	-25.206750	3698.943680	-2985.916995	142.413085	180.000000	2159.097584	41.952301	16.480815	-21.380606	
10.8300	-17.978672	-37.782836	57.841061	-10.831984	811.481962	-38.417445	28.335771	-45.000000	41.835770	-45.000000	-45.000000	1694.737819	-2085.752176	19.994663	-142.627476	359.085119	167.627290	12.357488	14.748737	-3.987175	37.685835	-32.489278	-45.000000	-25.528208	3698.816858	-2986.057961	142.360264	180.000000	2158.968201	41.964835	16.492631	-21.200076	
10.8400	-17.443520	-37.978902	58.624128	-8.030953	809.570274	-38.192879	28.411319	-45.000000	41.820787	-45.000000	-45.000000	1694.686552	-2085.836545	19.925244	-142.175402	359.155972	168.240782	12.289980	14.666915	-4.016720	37.591598	-32.237159	-45.000000	-25.882087	3698.674752	-2986.194107	142.305031	180.000000	2158.847862	41.979418	16.492055	-21.020433	
10.8500	-16.907604	-38.163862	59.408473	-5.253402	807.638323	-37.957891	28.487611	-45.000000	41.805448	-45.000000	-45.000000	1694.620791	-2085.917712	19.856104	-141.688898	359.229857	168.813759	12.222435	14.589006	-4.044072	37.491588	-31.975278	-45.000000	-26.273455	3698.514060	-2986.322129	142.248761	180.000000	2158.736578	41.996845	16.482472	-20.847249	
10.8600	-16.375467	-38.337917	60.188855	-2.503901	805.688585	-37.711296	28.564722	-45.000000	41.789394	-45.000000	-45.000000	1694.544416	-2085.994427	19.781925	-141.161762	359.300350	169.340229	12.155753	14.514805	-4.070703	37.383365	-31.707549	-45.000000	-26.694829	3698.341360	-2986.443107	142.191372	180.000000	2158.632817	42.016951	16.462997	-20.678193	
10.8700	-15.850780	-38.502188	60.961265	0.212008	803.723682	-37.451943	28.643205	-45.000000	41.773980	-45.000000	-45.000000	1694.456169	-2086.070478	19.707219	-140.596502	359.373293	169.814937	12.089012	14.446135	-4.096166	37.272268	-31.435998	-45.000000	-27.143226	3698.154807	-2986.554453	142.134460	180.000000	2158.533032	42.037380	16.437818	-20.515296	
10.8800	-15.336622	-38.656095	61.722459	2.887804	801.746752	-37.178878	28.723746	-45.000000	41.757711	-45.000000	-45.000000	1694.359240	-2086.143010	19.626914	-139.985491	359.443597	170.235113	12.023421	14.381264	-4.122808	37.155156	-31.165155	-45.000000	-27.608244	3697.963498	-2986.657859	142.076827	180.000000	2158.434277	42.053392	16.407885	-20.355432	
10.8900	-14.831378	-38.800069	62.474861	5.516495	799.761593	-36.891651	28.805459	-45.000000	41.742201	-45.000000	-45.000000	1694.251011	-2086.212425	19.543661	-139.331424	359.517363	170.597404	11.957261	14.319811	-4.149998	37.037119	-30.891746	-45.000000	-28.088719	3697.762852	-2986.751683	142.020227	180.000000	2158.336304	42.058722	16.375979	-20.198438	
10.9000	-14.333096	-38.933748	63.220311	8.090911	797.772946	-36.590631	28.888426	-45.000000	41.724936	-45.000000	-45.000000	1694.133505	-2086.272395	19.454949	-138.627479	359.590999	170.899943	11.891296	14.258067	-4.179166	36.913756	-30.614894	-45.000000	-28.584206	3697.556889	-2986.837211	141.962313	180.000000	2158.239233	42.046535	16.341824	-20.040809	
10.9100	-13.840024	-39.056696	63.960001	10.604235	795.786435	-36.277264	28.970913	-45.000000	41.705974	-45.000000	-45.000000	1694.004242	-2086.321083	19.365143	-137.876554	359.668135	171.139903	11.824858	14.194845	-4.209656	36.788085	-30.330423	-45.000000	-29.094514	3697.341051	-2986.913627	141.903490	180.000000	2158.143958	42.010712	16.306768	-19.882156	
